<?xml version="1.0" encoding="UTF-8" standalone="no"?>
<!DOCTYPE svg PUBLIC "-//W3C//DTD SVG 1.1//EN" "http://www.w3.org/Graphics/SVG/1.1/DTD/svg11.dtd">
<svg version="1.1" xmlns="http://www.w3.org/2000/svg" xmlns:xlink="http://www.w3.org/1999/xlink" preserveAspectRatio="xMidYMid meet" viewBox="0 0 650 50" width="650" height="50"><defs><path d="M0 184.78L0 156.52C75.05 140.34 154.39 134.06 238.01 137.68C280.31 139.51 327.34 144.03 379.1 151.21C469.6 163.78 561.69 158.2 650 134.78C650 134.78 650 134.78 650 134.78L650 184.78L0 184.78Z" id="b2k0V9iWvA"></path><path d="M650 0L650 28.26C574.95 44.44 495.61 50.72 411.99 47.1C369.69 45.27 322.66 40.76 270.9 33.57C180.4 21 88.31 26.58 0 50C0 50 0 50 0 50L0 0L650 0Z" id="f1JXrZaty7"></path></defs><g><g><g><use xlink:href="#b2k0V9iWvA" opacity="1" fill="#000000" fill-opacity="1"></use><g><use xlink:href="#b2k0V9iWvA" opacity="1" fill-opacity="0" stroke="#000000" stroke-width="1" stroke-opacity="1"></use></g></g><g><use xlink:href="#f1JXrZaty7" opacity="1" fill="#000000" fill-opacity="1"></use><g><use xlink:href="#f1JXrZaty7" opacity="1" fill-opacity="0" stroke="#000000" stroke-width="1" stroke-opacity="1"></use></g></g></g></g></svg>