<?xml version="1.0" encoding="UTF-8" standalone="no"?>
<!DOCTYPE svg PUBLIC "-//W3C//DTD SVG 1.1//EN" "http://www.w3.org/Graphics/SVG/1.1/DTD/svg11.dtd">
<svg version="1.1" xmlns="http://www.w3.org/2000/svg" xmlns:xlink="http://www.w3.org/1999/xlink" preserveAspectRatio="xMidYMid meet" viewBox="0 0 650 50" width="650" height="50"><defs><path d="M0 50L0 21.74C75.05 5.56 154.39 -0.72 238.01 2.9C280.31 4.73 327.34 9.24 379.1 16.43C469.6 29 561.69 23.42 650 0C650 0 650 0 650 0L650 50L0 50Z" id="a2iGjTgE7h"></path><path d="M654.36 290.04L654.36 261.78C579.31 245.59 499.97 239.31 416.34 242.93C374.05 244.77 327.02 249.28 275.26 256.47C184.76 269.04 92.67 263.45 4.36 240.04C4.36 240.04 4.36 240.04 4.36 240.04L4.36 290.04L654.36 290.04Z" id="d4XDnVs8th"></path></defs><g><g><g><use xlink:href="#a2iGjTgE7h" opacity="1" fill="#000000" fill-opacity="1"></use><g><use xlink:href="#a2iGjTgE7h" opacity="1" fill-opacity="0" stroke="#000000" stroke-width="1" stroke-opacity="1"></use></g></g><g><use xlink:href="#d4XDnVs8th" opacity="1" fill="#000000" fill-opacity="1"></use><g><use xlink:href="#d4XDnVs8th" opacity="1" fill-opacity="0" stroke="#000000" stroke-width="1" stroke-opacity="1"></use></g></g></g></g></svg>