<?xml version="1.0"?>
<svg xmlns="http://www.w3.org/2000/svg" xmlns:xlink="http://www.w3.org/1999/xlink" version="1.1" viewBox="0 0 226 226" width="100px" height="100px"><g fill="none" fill-rule="nonzero" stroke="none" stroke-width="1" stroke-linecap="butt" stroke-linejoin="miter" stroke-miterlimit="10" stroke-dasharray="" stroke-dashoffset="0" font-family="none" font-weight="none" font-size="none" text-anchor="none" style="mix-blend-mode: normal"><path d="M0,226v-226h226v226z" fill="none"/><g fill="#b3b3bd"><g id="surface1"><path d="M113,13.56c-29.99797,0 -54.24,24.24203 -54.24,54.24v22.6h-18.08c-7.68047,0 -13.56,5.87953 -13.56,13.56v108.48c0,7.68047 5.87953,13.56 13.56,13.56h144.64c7.68047,0 13.56,-5.87953 13.56,-13.56v-108.48c0,-7.68047 -5.87953,-13.56 -13.56,-13.56h-18.08v-22.6c0,-29.99797 -24.24203,-54.24 -54.24,-54.24zM113,22.6c25.16016,0 45.2,20.03984 45.2,45.2v22.6h-90.4v-22.6c0,-25.16016 20.03984,-45.2 45.2,-45.2zM113,135.6c7.68047,0 13.56,5.87953 13.56,13.56c0,4.06094 -1.80094,7.6275 -4.52,9.8875v12.7125c0,4.97906 -4.06094,9.04 -9.04,9.04c-4.97906,0 -9.04,-4.06094 -9.04,-9.04v-12.7125c-2.71906,-2.26 -4.52,-5.82656 -4.52,-9.8875c0,-7.68047 5.87953,-13.56 13.56,-13.56z"/></g></g></g></svg>
